<?xml version="1.0" standalone="no"?>
<!DOCTYPE svg PUBLIC "-//W3C//DTD SVG 20010904//EN"
 "http://www.w3.org/TR/2001/REC-SVG-20010904/DTD/svg10.dtd">
<svg version="1.0" xmlns="http://www.w3.org/2000/svg"
 width="128.000000pt" height="128.000000pt" viewBox="0 0 128.000000 128.000000"
 preserveAspectRatio="xMidYMid meet">
<metadata>
Created by potrace 1.11, written by Peter Selinger 2001-2013
</metadata>
<g transform="translate(0.000000,128.000000) scale(0.100000,-0.100000)"
fill="#000000" stroke="none">
<path d="M526 1252 c-7 -12 11 -73 28 -97 24 -32 29 -10 11 44 -17 52 -29 68
-39 53z"/>
<path d="M772 1247 c-15 -18 -36 -96 -28 -104 11 -11 26 11 41 60 14 46 7 69
-13 44z"/>
<path d="M336 1093 c-12 -13 -5 -22 40 -48 31 -18 49 -24 56 -17 7 7 -2 18
-28 34 -60 38 -61 38 -68 31z"/>
<path d="M939 1080 c-43 -22 -64 -46 -50 -54 6 -4 30 5 53 20 55 34 53 33 42
43 -5 6 -23 2 -45 -9z"/>
<path d="M613 1060 c-42 -26 -115 -108 -108 -120 4 -6 20 -9 36 -6 l29 4 1
-66 c0 -37 0 -91 -1 -119 -1 -47 1 -53 19 -53 17 0 21 6 21 36 0 45 24 42 28
-4 2 -24 8 -32 22 -32 16 0 19 6 16 29 -2 20 2 32 12 36 20 7 30 -10 24 -41
-3 -18 0 -24 14 -24 17 0 19 9 19 103 -1 123 2 136 24 132 10 -2 24 1 31 5 11
7 -1 23 -48 68 -70 67 -98 77 -139 52z"/>
<path d="M375 865 c-5 -2 -27 -6 -47 -10 -24 -4 -38 -11 -38 -21 0 -11 8 -13
33 -9 17 3 39 7 47 8 24 4 41 17 35 28 -6 9 -12 10 -30 4z"/>
<path d="M916 861 c-7 -10 10 -24 34 -28 64 -12 80 -11 80 2 0 8 -15 17 -37
20 -21 4 -45 9 -55 11 -9 3 -19 0 -22 -5z"/>
<path d="M504 637 c-7 -4 -62 -56 -120 -115 -96 -98 -105 -110 -101 -138 4
-24 44 -69 172 -197 92 -92 175 -168 184 -168 33 -3 47 4 82 37 l35 34 25 -26
c68 -73 169 -78 244 -13 75 66 75 191 -1 255 -24 19 -24 21 -9 52 9 18 14 40
11 50 -3 9 -55 66 -115 126 l-110 110 -141 0 c-78 1 -148 -3 -156 -7z"/>
</g>
</svg>
