<?xml version="1.0" standalone="no"?>
<!DOCTYPE svg PUBLIC "-//W3C//DTD SVG 20010904//EN"
 "http://www.w3.org/TR/2001/REC-SVG-20010904/DTD/svg10.dtd">
<svg version="1.0" xmlns="http://www.w3.org/2000/svg"
 width="128.000000pt" height="128.000000pt" viewBox="0 0 128.000000 128.000000"
 preserveAspectRatio="xMidYMid meet">
<metadata>
Created by potrace 1.11, written by Peter Selinger 2001-2013
</metadata>
<g transform="translate(0.000000,128.000000) scale(0.100000,-0.100000)"
fill="#000000" stroke="none">
<path d="M169 1111 c-76 -77 -139 -144 -139 -150 0 -6 52 -63 115 -126 63 -63
115 -119 115 -124 0 -4 -9 -16 -20 -26 -11 -10 -20 -22 -20 -27 0 -4 135 -143
300 -307 338 -338 340 -340 444 -309 30 9 67 39 142 113 56 55 109 112 118
126 25 39 30 107 12 151 -11 24 -117 138 -312 333 -163 162 -299 295 -303 295
-4 0 -17 -9 -29 -20 -12 -11 -23 -20 -26 -20 -2 0 -57 52 -121 115 -64 63
-121 115 -126 115 -6 0 -73 -63 -150 -139z"/>
</g>
</svg>
